<?xml version="1.0" encoding="utf-8"?>
<!-- Generator: Adobe Illustrator 20.1.0, SVG Export Plug-In . SVG Version: 6.00 Build 0)  -->
<svg version="1.2" baseProfile="tiny" id="Layer_1" xmlns="http://www.w3.org/2000/svg" xmlns:xlink="http://www.w3.org/1999/xlink"
	 x="0px" y="0px" viewBox="0 0 68 68" xml:space="preserve">
<circle fill="#FFFFFF" cx="34" cy="34" r="34"/>
<g>
	<path fill="#333333" d="M36.1,37.1V22.3H51v15.1c0,10.2-9.6,11.5-9.6,11.5l-1.3-3c0,0,4.2-0.6,5.1-4c0.8-2.6-0.9-4.7-0.9-4.7H36.1z
		 M36.1,37.1"/>
	<path fill="#333333" d="M17,37.1V22.3h14.9v15.1c0,10.2-9.6,11.5-9.6,11.5l-1.3-3c0,0,4.3-0.6,5.1-4c0.8-2.6-0.9-4.7-0.9-4.7H17z
		 M17,37.1"/>
</g>
</svg>
