<?xml version="1.0" encoding="utf-8"?>
<!-- Generator: Adobe Illustrator 20.1.0, SVG Export Plug-In . SVG Version: 6.00 Build 0)  -->
<svg version="1.2" baseProfile="tiny" id="Layer_1" xmlns="http://www.w3.org/2000/svg" xmlns:xlink="http://www.w3.org/1999/xlink"
	 x="0px" y="0px" viewBox="0 0 55 55" xml:space="preserve">
<circle fill="#FFFFFF" cx="27.5" cy="27.5" r="27.5"/>
<path fill="#333333" d="M12.5,36c-1.1,0-2-0.9-2-2V20.2c0-1.1,0.7-1.4,1.5-0.7l6,5.3c0.8,0.7,2,0.6,2.7-0.3l5.6-7.8
	c0.6-0.9,1.7-0.9,2.3,0l5.6,7.8c0.6,0.9,1.8,1,2.7,0.3l6-5.3c0.8-0.7,1.5-0.4,1.5,0.7V34c0,1.1-0.9,2-2,2H12.5z"/>
</svg>
