<?xml version="1.0" encoding="utf-8"?>
<!-- Generator: Adobe Illustrator 20.1.0, SVG Export Plug-In . SVG Version: 6.00 Build 0)  -->
<svg version="1.2" baseProfile="tiny" id="Layer_1" xmlns="http://www.w3.org/2000/svg" xmlns:xlink="http://www.w3.org/1999/xlink"
	 x="0px" y="0px" viewBox="0 0 34 26.6" xml:space="preserve">
<g>
	<path fill="#FFFFFF" d="M19.1,14.9V0L34,0v15.1c0,10.2-9.6,11.5-9.6,11.5l-1.3-3c0,0,4.2-0.6,5.1-4c0.8-2.6-0.9-4.7-0.9-4.7H19.1z
		 M19.1,14.9"/>
	<path fill="#FFFFFF" d="M0,14.9L0,0l14.9,0v15.1c0,10.2-9.6,11.5-9.6,11.5l-1.3-3c0,0,4.3-0.6,5.1-4c0.8-2.6-0.9-4.7-0.9-4.7H0z
		 M0,14.9"/>
</g>
</svg>
