<?xml version="1.0" encoding="utf-8"?>
<!-- Generator: Adobe Illustrator 20.1.0, SVG Export Plug-In . SVG Version: 6.00 Build 0)  -->
<svg version="1.2" baseProfile="tiny" id="Layer_1" xmlns="http://www.w3.org/2000/svg" xmlns:xlink="http://www.w3.org/1999/xlink"
	 x="0px" y="0px" viewBox="0 0 57 57" xml:space="preserve">
<circle fill="none" stroke="#FFFFFF" stroke-width="2" stroke-miterlimit="10" cx="28.8" cy="28.5" r="27.5"/>
<path fill="#FFFFFF" d="M1,29.5h28.1c0,0.3,0,0.6,0,0.9v3.7c0,1,0.7,1.5,1.7,1l3.2-1.8c0.9-0.5,2.4-1.4,3.3-1.9l3.2-1.8
	c0.9-0.5,0.9-1.4,0-1.9l-3.2-1.8c-0.9-0.5-2.4-1.4-3.3-1.9L30.7,22c-0.9-0.5-1.7-0.1-1.7,1v3.7c0,0.3,0,0.6,0,0.9H1V29.5z"/>
</svg>
