<?xml version="1.0" encoding="utf-8"?>
<!-- Generator: Adobe Illustrator 20.1.0, SVG Export Plug-In . SVG Version: 6.00 Build 0)  -->
<svg version="1.2" baseProfile="tiny" id="Layer_1" xmlns="http://www.w3.org/2000/svg" xmlns:xlink="http://www.w3.org/1999/xlink"
	 x="0px" y="0px" viewBox="0 0 56 56" xml:space="preserve">
<circle fill="none" stroke="#FFFFFF" stroke-miterlimit="10" cx="28" cy="28" r="27.5"/>
<path fill="#333333" d="M33.4,32.3"/>
<path fill="#FFFFFF" d="M34,32.6c-1.8,0-3.4,0.8-4.5,2.1l-6.2-3.8c0.3-0.7,0.4-1.4,0.4-2.2c0-0.8-0.2-1.6-0.4-2.3l6.2-3.9
	c1.1,1.2,2.7,2,4.5,2c3.3,0,6-2.7,6-6s-2.7-6-6-6s-6,2.7-6,6c0,0.8,0.2,1.6,0.4,2.3l-6.2,3.9c-1.1-1.2-2.7-2-4.5-2c-3.3,0-6,2.7-6,6
	s2.7,6,6,6c1.8,0,3.4-0.8,4.5-2.1l6.2,3.8c-0.3,0.7-0.4,1.4-0.4,2.2c0,3.3,2.7,6,6,6s6-2.7,6-6S37.3,32.6,34,32.6z"/>
</svg>
