<?xml version="1.0" encoding="utf-8"?>
<!-- Generator: Adobe Illustrator 20.1.0, SVG Export Plug-In . SVG Version: 6.00 Build 0)  -->
<svg version="1.2" baseProfile="tiny" id="Layer_1" xmlns="http://www.w3.org/2000/svg" xmlns:xlink="http://www.w3.org/1999/xlink"
	 x="0px" y="0px" viewBox="0 0 18.7 31.1" xml:space="preserve">
<g>
	<g>
		<path fill="#FFFFFF" d="M12.9,6.4h5.8V0h-6.5l-0.1,0c-4,0.4-7,3.8-7,7.7v3.9H0v6.4h5.2v13h6.4v-13h6.5v-6.4h-6.5V7.7
			C11.6,7,12.2,6.4,12.9,6.4z M16.9,12.9v4h-6.5v13h-4v-13H1.2v-4h5.2V7.7c0-3.3,2.6-6.2,5.9-6.5h5.2v4h-4.6c-1.4,0-2.6,1.1-2.6,2.6
			v5.2H16.9z"/>
	</g>
	<path fill="#FFFFFF" d="M5.6,12.3V6L8.7,2l5.4-1.5h4c0,0,0.1,4.7,0,4.9c-0.1,0.2-6.5,0.3-6.5,0.3l-0.9,2.5l0.3,3.5l6.5,0.6v5.3
		h-6.2l-0.4,12.8H5.6v-13l-4.9,0.1v-5.2H5.6z"/>
</g>
</svg>
