<?xml version="1.0" encoding="utf-8"?>
<!-- Generator: Adobe Illustrator 20.1.0, SVG Export Plug-In . SVG Version: 6.00 Build 0)  -->
<svg version="1.2" baseProfile="tiny" id="Layer_1" xmlns="http://www.w3.org/2000/svg"
     xmlns:xlink="http://www.w3.org/1999/xlink"
	 x="0px" y="0px" viewBox="0 0 55 55" xml:space="preserve">
<circle fill="#DC4F42" cx="27.5" cy="27.5" r="27.5"/>
<g>
	<path fill="#FFFFFF" d="M11.5,27.8c-0.2-5.6,4.7-10.7,10.2-10.8c2.8-0.2,5.6,0.9,7.8,2.7c-0.9,1-1.8,1.9-2.7,2.8
		c-1.9-1.2-4.2-2-6.4-1.2c-3.6,1-5.7,5.2-4.4,8.7c1.1,3.6,5.5,5.6,9,4.1c1.8-0.6,3-2.3,3.5-4.1c-2.1,0-4.1,0-6.2-0.1
		c0-1.2,0-2.4,0-3.7c3.4,0,6.9,0,10.3,0c0.2,3-0.2,6.2-2.2,8.6c-2.7,3.4-7.6,4.5-11.6,3.1C14.5,36.7,11.4,32.4,11.5,27.8z"/>
	<path fill="#FFFFFF" d="M39.3,23.2c1,0,2,0,3.1,0c0,1,0,2.1,0,3.1c1,0,2.1,0,3.1,0c0,1,0,2,0,3.1c-1,0-2.1,0-3.1,0c0,1,0,2.1,0,3.1
		c-1,0-2.1,0-3.1,0c0-1,0-2.1,0-3.1c-1,0-2.1,0-3.1,0c0-1,0-2,0-3.1c1,0,2.1,0,3.1,0C39.3,25.3,39.3,24.2,39.3,23.2z"/>
</g>
</svg>
