<?xml version="1.0" encoding="utf-8"?>
<!-- Generator: Adobe Illustrator 20.1.0, SVG Export Plug-In . SVG Version: 6.00 Build 0)  -->
<svg version="1.2" baseProfile="tiny" id="Layer_1" xmlns="http://www.w3.org/2000/svg" xmlns:xlink="http://www.w3.org/1999/xlink"
	 x="0px" y="0px" viewBox="0 0 22 22" xml:space="preserve">
<g>
	<path fill="#FFFFFF" d="M11.4,13.3h6C16.1,16.8,12,19,7.7,17c-1.2-0.6-2.2-1.6-2.8-2.8C2.5,9.2,6.2,4.2,11,4.2c2,0,3.8,0.8,5,2.2
		c0,0,0.1,0,0.1,0L19,3.6c0,0,0-0.1,0-0.1C16.1,0.4,11.5-1,6.7,0.8c-2.8,1.1-5,3.4-6,6.2C-2,14.8,3.6,22,11,22
		c5.9,0,10.6-4.6,11-10.4c0-0.1,0-2.5,0-2.5H11.4c-0.1,0-0.1,0-0.1,0.1L11.4,13.3C11.3,13.2,11.4,13.3,11.4,13.3z"/>
</g>
</svg>
