<?xml version="1.0" encoding="utf-8"?>
<!-- Generator: Adobe Illustrator 20.1.0, SVG Export Plug-In . SVG Version: 6.00 Build 0)  -->
<svg version="1.2" baseProfile="tiny" id="Layer_1" xmlns="http://www.w3.org/2000/svg" xmlns:xlink="http://www.w3.org/1999/xlink"
	 x="0px" y="0px" viewBox="0 0 55 55" xml:space="preserve">
<circle fill="#2EAAE1" cx="27.5" cy="27.5" r="27.5"/>
<g>
	<path fill="#FFFFFF" d="M41.4,20.3c-0.1-0.1-0.4-0.2-0.5-0.1l-0.9,0.3c0.5-0.6,0.9-1.3,1.1-1.9c0.1-0.2,0-0.4-0.1-0.5
		c-0.1-0.1-0.4-0.2-0.5-0.1c-1.2,0.5-2.3,1-3.2,1.2c0,0,0,0-0.1,0c-0.7-0.4-2.4-1.3-3.7-1.3c-3.1,0-5.6,2.7-5.6,5.9V24
		c-4.6-0.9-7.1-2.2-9.8-5.1l-0.4-0.4L17.3,19c-1.5,2.9-0.4,5.5,1.3,7.2c-0.8-0.1-1.3-0.4-1.8-0.8c-0.2-0.1-0.4-0.2-0.6,0
		c-0.2,0.1-0.3,0.4-0.2,0.6c0.6,2.1,2.2,3.8,3.8,4.8c-0.8,0-1.5-0.1-2.1-0.5c-0.2-0.1-0.4-0.1-0.6,0c-0.2,0.1-0.3,0.4-0.2,0.6
		c0.8,2.3,2.3,3.4,4.8,3.8c-1.3,0.8-3,1.4-5.6,1.4c-0.3,0-0.5,0.2-0.6,0.4c-0.1,0.3,0,0.5,0.2,0.7c1.6,1.3,5.1,2,9.5,2
		c7.8,0,14.1-6.9,14.1-15.4v-0.1c1-0.5,1.8-1.4,2.2-2.7C41.5,20.6,41.5,20.4,41.4,20.3L41.4,20.3z M38.7,22.8"/>
</g>
</svg>
