<?xml version="1.0" encoding="utf-8"?>
<!-- Generator: Adobe Illustrator 20.1.0, SVG Export Plug-In . SVG Version: 6.00 Build 0)  -->
<svg version="1.2" baseProfile="tiny" id="Layer_1" xmlns="http://www.w3.org/2000/svg" xmlns:xlink="http://www.w3.org/1999/xlink"
	 x="0px" y="0px" viewBox="0 0 26 21.6" xml:space="preserve">
<path fill="#FFFFFF" d="M25.6,2.5C25,2.8,24.4,3,23.8,3.1c0.7-0.6,1.2-1.5,1.5-2.3l0,0c0.1-0.3-0.2-0.5-0.4-0.3l0,0
	c-0.9,0.5-1.8,0.9-2.7,1.1c-0.1,0-0.1,0-0.2,0c-0.2,0-0.3-0.1-0.5-0.2c-1-0.9-2.3-1.4-3.7-1.4c-0.6,0-1.2,0.1-1.8,0.3
	c-1.8,0.6-3.2,2.1-3.7,3.9c-0.2,0.7-0.2,1.4-0.1,2.1c0,0.1,0,0.1-0.1,0.2c0,0-0.1,0.1-0.2,0.1c0,0,0,0,0,0C8,6.1,4.4,4.2,1.8,1.1
	l0,0c-0.1-0.2-0.4-0.1-0.5,0l0,0C0.9,2,0.6,2.9,0.6,3.9c0,1.5,0.6,3,1.7,4C1.8,7.8,1.4,7.7,1,7.4l0,0c-0.2-0.1-0.4,0-0.4,0.3l0,0
	c0,2.3,1.3,4.3,3.3,5.2c0,0-0.1,0-0.1,0c-0.3,0-0.6,0-0.9-0.1l0,0c-0.2,0-0.4,0.2-0.3,0.4l0,0c0.6,2,2.4,3.5,4.4,3.8
	c-1.7,1.2-3.7,1.8-5.8,1.8l-0.6,0c-0.2,0-0.4,0.1-0.4,0.3c-0.1,0.2,0,0.4,0.2,0.5c2.3,1.4,5,2.1,7.7,2.1c2.4,0,4.6-0.5,6.6-1.4
	c1.8-0.9,3.5-2.1,4.8-3.6c1.3-1.4,2.3-3.1,3-5c0.7-1.8,1-3.6,1-5.4V6.1c0-0.3,0.1-0.6,0.4-0.7c0.9-0.7,1.6-1.5,2.2-2.4l0,0
	C26.1,2.7,25.9,2.4,25.6,2.5L25.6,2.5z"/>
</svg>
